<svg xmlns="http://www.w3.org/2000/svg" viewBox="0 0 482.52 237.81"><defs><style>.cls-1{fill:#231916;}</style></defs><g id="Layer_2" data-name="Layer 2"><g id="图层_1" data-name="图层 1"><path class="cls-1" d="M16.62,237.81c-3.76,0-6.67-2-6.72-5.4h3.89a2.48,2.48,0,0,0,2.75,2.41c1.71,0,2.72-.91,2.72-2.2,0-3.92-9.33-1.56-9.31-8.12,0-3.27,2.65-5.24,6.38-5.24s6.25,1.89,6.49,5.16h-4a2.39,2.39,0,0,0-2.59-2.15c-1.43-.06-2.49.65-2.49,2.12,0,3.64,9.29,1.61,9.29,8C23,235.24,20.74,237.81,16.62,237.81Z"/><path class="cls-1" d="M42.9,222.45H36V227h6.09v2.88H36v4.8H42.9v3H32.39V219.49H42.9Z"/><path class="cls-1" d="M67.9,219.49v18.13H64.27L56.05,225.2v12.42H52.42V219.49h3.63l8.22,12.45V219.49Z"/><path class="cls-1" d="M84,237.81c-3.76,0-6.66-2-6.71-5.4h3.89a2.48,2.48,0,0,0,2.75,2.41c1.71,0,2.72-.91,2.72-2.2,0-3.92-9.34-1.56-9.31-8.12,0-3.27,2.64-5.24,6.38-5.24s6.25,1.89,6.49,5.16h-4a2.39,2.39,0,0,0-2.6-2.15c-1.42-.06-2.48.65-2.48,2.12,0,3.64,9.28,1.61,9.28,8C90.37,235.24,88.09,237.81,84,237.81Z"/><path class="cls-1" d="M110.25,222.45h-6.88V227h6.1v2.88h-6.1v4.8h6.88v3H99.74V219.49h10.51Z"/><path class="cls-1" d="M121.56,231.29a2.13,2.13,0,1,1,2.2-2.12A2.13,2.13,0,0,1,121.56,231.29Z"/><path class="cls-1" d="M143.5,222.45h-6.87V227h6.1v2.88h-6.1v4.8h6.87v3H133V219.49h10.5Z"/><path class="cls-1" d="M153,219.52h4.13L162.91,233l5.75-13.46h4.1v18.1h-3.63V225.85l-4.85,11.77h-2.75l-4.87-11.77v11.77H153Z"/><path class="cls-1" d="M189.24,230.67h-3v7h-3.64v-18.1h6.67c4.36,0,6.54,2.46,6.54,5.6C195.78,227.87,193.91,230.67,189.24,230.67Zm-.16-2.93c2,0,3-1,3-2.62s-.91-2.64-3-2.64h-2.87v5.26Z"/><path class="cls-1" d="M213,237.81a9.28,9.28,0,1,1,9.26-9.29A9.1,9.1,0,0,1,213,237.81Zm0-3.25c3.27,0,5.52-2.36,5.52-6s-2.25-6-5.52-6-5.55,2.31-5.55,6S209.68,234.56,213,234.56Z"/><path class="cls-1" d="M229.94,219.52h3.9L237,233.58l3.69-14.06h4l3.47,14,3.22-14h3.91l-5.06,18.1H246l-3.4-12.89-3.56,12.89-4.25,0Z"/><path class="cls-1" d="M274.46,222.45h-6.87V227h6.09v2.88h-6.09v4.8h6.87v3H264V219.49h10.51Z"/><path class="cls-1" d="M290.78,219.52c4.36,0,6.54,2.51,6.54,5.55a5.22,5.22,0,0,1-4.13,5.21l4.33,7.34h-4.2l-4-7.05h-1.71v7.05H284v-18.1Zm-.13,3h-3v5.31h3c2,0,2.93-1.06,2.93-2.69S292.67,222.53,290.65,222.53Z"/><path class="cls-1" d="M308.63,231.29a2.13,2.13,0,1,1,2.2-2.12A2.13,2.13,0,0,1,308.63,231.29Z"/><path class="cls-1" d="M331.17,234.17H324l-1.19,3.45H319l6.52-18.13h4.22l6.51,18.13h-3.84Zm-3.61-10.48-2.62,7.58h5.25Z"/><path class="cls-1" d="M344.82,219.52h3.63v11.2c0,2.49,1.35,3.79,3.65,3.79s3.69-1.3,3.69-3.79v-11.2h3.66V230.7c0,4.77-3.43,7.11-7.4,7.11s-7.23-2.34-7.23-7.11Z"/><path class="cls-1" d="M386,225h-4.18a4.53,4.53,0,0,0-4.25-2.34c-3.24,0-5.5,2.31-5.5,5.91s2.28,6,5.65,6a4.93,4.93,0,0,0,5.14-4.17h-6.23v-2.78h9.81v3.16a8.85,8.85,0,0,1-8.85,7.06,9.25,9.25,0,1,1,0-18.5C381.57,219.28,384.79,221.33,386,225Z"/><path class="cls-1" d="M395.33,219.52h4.12L405.21,233,411,219.52h4.1v18.1h-3.63V225.85l-4.85,11.77h-2.76L399,225.85v11.77h-3.63Z"/><path class="cls-1" d="M435.38,222.45h-6.87V227h6.09v2.88h-6.09v4.8h6.87v3H424.87V219.49h10.51Z"/><path class="cls-1" d="M460.39,219.49v18.13h-3.63l-8.22-12.42v12.42H444.9V219.49h3.64l8.22,12.45V219.49Z"/><path class="cls-1" d="M469.24,219.52h13.28v2.93h-4.83v15.17h-3.63V222.45h-4.82Z"/><path class="cls-1" d="M97.25,136.2H66.88A66.88,66.88,0,0,1,0,69.33H0A66.87,66.87,0,0,1,66.87,2.44h110.8A55.85,55.85,0,0,1,188.9,3.7a151,151,0,0,0,50.19,1.81c39.4-8.26,63.81-3.07,63.81-3.07V32a54.27,54.27,0,0,0-27.68-4.22c-15,1.92-36.91,6.22-55,7.3-16.91,1-30.76-5.77-44.21-5.77H67.46A38.64,38.64,0,0,0,28.83,68h0a38.64,38.64,0,0,0,38.63,38.64H96.87Z"/><path class="cls-1" d="M97.26,54.36H63.42V81.27H96.67a38.64,38.64,0,0,1,38.64,38.63h0a38.63,38.63,0,0,1-38.64,38.63H9l-.39,29.6H97.25a66.87,66.87,0,0,0,66.88-66.87h0A66.87,66.87,0,0,0,97.26,54.36Z"/><path class="cls-1" d="M340.76,66.87V192.73h28.07V67.46c0-21.33,18-38.63,40.29-38.63h0c22.25,0,40.29,17.3,40.29,38.63V192.73H480.3V66.88C480.3,30,449.07,0,410.54,0h0C372,0,340.76,29.94,340.76,66.87Z"/><path class="cls-1" d="M339.42,115.06c-23.24-1.93-42.29-11.76-65.35-11.53-19.41.19-41.32,9.23-56.7,9.61s-32.09-4.61-32.09-4.61V77.78s18.83,7.68,48.09,6.2c18.82-1,27.82-5.46,44.35-5.82,17.49-.38,45,10.38,61.7,9.61,0,0,20.75.77,35.36-4.61s46.13-1.92,52.66,2.3v26.91s-16.91-6.53-30.75-5.76S363.41,117.06,339.42,115.06Z"/><path class="cls-1" d="M302.9,161.16c-8.83-2-17.14-3.64-23.26-3.53-13.69.26-26.3,5-45.11,5.91-29.27,1.49-48.1-6.19-48.1-6.19V188.1s16.72,5,32.1,4.61,37.28-9.42,56.69-9.61c9.74-.1,18.76,1.62,27.68,3.76Z"/></g></g></svg>